<svg xmlns="http://www.w3.org/2000/svg" xml:space="preserve" viewBox="-120 -80 1326 575" style="fill-rule:evenodd;clip-rule:evenodd;stroke-linejoin:round;stroke-miterlimit:2">
    <rect x="-120" y="-80" width="1326" height="575" rx="100" style="fill:#ffffff"/>
    <path d="M211.3 190.2a8.8 8.8 0 0 1-9.8 6.5A99 99 0 1 1 315.7 101a8.8 8.8 0 0 1-8.2 8.6c-4 .4-8 1-12 1.7a8.8 8.8 0 0 1-10.6-9 68.3 68.3 0 1 0-76.8 64.5 8.8 8.8 0 0 1 7 12c-1.4 3.7-2.7 7.6-3.8 11.5Z" style="fill:#74aa00"/>
    <path d="M211.3 68.3a31.1 31.1 0 1 1 10.8 61.3 31.1 31.1 0 0 1-10.8-61.3Z"/>
    <path d="M224 211.3a8.8 8.8 0 0 1-6.4-9.8 99 99 0 1 1 95.8 114.2 8.8 8.8 0 0 1-8.6-8.2c-.4-4-1-8-1.8-12a8.8 8.8 0 0 1 9-10.6 68.3 68.3 0 1 0-64.5-76.8 8.8 8.8 0 0 1-11.9 7c-3.8-1.4-7.6-2.7-11.5-3.8Z" style="fill:#74aa00"/>
    <path d="M346 211.3a31.1 31.1 0 1 1-61.4 10.8 31.1 31.1 0 0 1 61.4-10.8Z"/>
    <path d="M203 224a8.8 8.8 0 0 1 9.8-6.4 99 99 0 1 1-114.2 95.8 8.8 8.8 0 0 1 8.2-8.6c4-.4 8-1 12-1.8a8.8 8.8 0 0 1 10.6 9 68.3 68.3 0 1 0 76.8-64.5 8.8 8.8 0 0 1-7-11.9c1.4-3.8 2.7-7.6 3.7-11.5Z" style="fill:#74aa00"/>
    <path d="M203 346a31.1 31.1 0 1 1-10.8-61.4A31.1 31.1 0 0 1 203 346Z"/>
    <path d="M190.2 203a8.8 8.8 0 0 1 6.5 9.8A99 99 0 1 1 101 98.6c4.6.2 8.3 3.7 8.6 8.2.4 4 1 8 1.7 12a8.8 8.8 0 0 1-9 10.6 68.3 68.3 0 1 0 64.5 76.8 8.8 8.8 0 0 1 12-7c3.7 1.4 7.6 2.7 11.5 3.7Z" style="fill:#74aa00"/>
    <path d="M68.3 203a31.1 31.1 0 1 1 61.3-10.8A31.1 31.1 0 0 1 68.3 203Z"/>
    <path d="M467.4 259.7a6 6 0 0 1-4.4-1.8 6 6 0 0 1-1.7-4.4V132.3a6 6 0 0 1 1.7-4.4 6 6 0 0 1 4.4-1.8h21a6 6 0 0 1 4.4 1.8 6 6 0 0 1 1.8 4.4v10.5c4.5-5.5 10.2-10 17.1-13.7 7-3.7 15.6-5.6 25.9-5.6a47 47 0 0 1 45 27 69.5 69.5 0 0 1 6.3 30.9v72.1a6 6 0 0 1-1.8 4.4 6 6 0 0 1-4.3 1.8h-22.6a6 6 0 0 1-4.4-1.8 6 6 0 0 1-1.8-4.4V183c0-10-2.4-17.7-7.3-23.4a27 27 0 0 0-21.2-8.5c-9 0-16 2.9-21.3 8.5-5.4 5.7-8 13.5-8 23.4v70.6a6 6 0 0 1-1.8 4.4 6 6 0 0 1-4.4 1.8h-22.6Zm160.6 0a6 6 0 0 1-4.4-1.8 6 6 0 0 1-1.8-4.4v-170a6 6 0 0 1 1.8-4.4 6 6 0 0 1 4.4-1.8h21.3a6 6 0 0 1 4.4 1.8 6 6 0 0 1 1.8 4.4v170a6 6 0 0 1-1.8 4.4 6 6 0 0 1-4.4 1.8H628Z" style="fill:#231f20;fill-rule:nonzero"/>
    <path d="M695.8 259.7a6 6 0 0 1-4.4-1.8 6 6 0 0 1-1.8-4.4V132.3a6 6 0 0 1 1.8-4.4 6 6 0 0 1 4.4-1.8h21a6 6 0 0 1 4.4 1.8 6 6 0 0 1 1.8 4.4v10.5c4.5-5.5 10.2-10 17.1-13.7 7-3.7 15.6-5.6 25.8-5.6 10.5 0 19.6 2.4 27.3 7.1a47 47 0 0 1 17.8 20 69.5 69.5 0 0 1 6.3 30.8v72.1a6 6 0 0 1-1.8 4.4 6 6 0 0 1-4.3 1.8h-22.7a6 6 0 0 1-4.3-1.8 6 6 0 0 1-1.8-4.4V183a35 35 0 0 0-7.3-23.4 27 27 0 0 0-21.2-8.5c-9 0-16 2.9-21.4 8.5a33 33 0 0 0-8 23.4v70.6a6 6 0 0 1-1.7 4.4 6 6 0 0 1-4.4 1.8h-22.6Zm211.7 2.6c-19 0-34-5.5-45.2-16.5-11.2-11-17.1-26.5-18-46.7a68.2 68.2 0 0 1 0-12.9 76 76 0 0 1 8.9-33.5 54.3 54.3 0 0 1 21.7-21.6 67 67 0 0 1 32.6-7.6 66 66 0 0 1 35 8.7 54.5 54.5 0 0 1 21.3 23.8 82 82 0 0 1 7.2 35.4v5.4a6 6 0 0 1-1.8 4.3 6.3 6.3 0 0 1-4.7 1.8h-85.3v2c.2 6 1.4 11.6 3.5 16.7 2.1 5 5.3 9 9.5 12.2 4.2 3 9.2 4.6 15 4.6a29.6 29.6 0 0 0 20-7.2 29 29 0 0 0 4.4-4.6c1.6-2 2.8-3.3 3.8-3.8 1-.4 2.3-.6 4.2-.6h22.1a6 6 0 0 1 4.2 1.5c1.2 1 1.6 2.4 1.5 3.9a22 22 0 0 1-4.3 10 50 50 0 0 1-11.4 11.6c-5 3.7-11.2 6.9-18.6 9.4-7.5 2.4-16 3.7-25.6 3.7Zm-28.3-81H936v-.7c0-6.7-1.1-12.6-3.3-17.6-2.3-5-5.5-9-9.8-11.8a27.3 27.3 0 0 0-15.4-4.3 25.8 25.8 0 0 0-25 16c-2.2 5.1-3.3 11-3.3 17.7v.8Zm178.8 78.4a57.1 57.1 0 0 1-26-5.4c-7-3.6-12.2-9-15.6-16a61 61 0 0 1-5.1-26.6v-58.3H991a6 6 0 0 1-4.4-1.8 6.3 6.3 0 0 1-1.8-4.7v-14.6a6 6 0 0 1 1.8-4.4 6 6 0 0 1 4.4-1.8h20.3V83.5a6 6 0 0 1 1.7-4.4 5.8 5.8 0 0 1 4.4-1.8h20.9a6 6 0 0 1 4.3 1.8 6 6 0 0 1 1.8 4.4V126h32.1a6 6 0 0 1 4.4 1.8 6 6 0 0 1 1.8 4.4v14.6c0 2-.6 3.5-1.8 4.7a6 6 0 0 1-4.4 1.7h-32V209c0 7 1.2 12.5 3.6 16.4 2.5 4 6.9 6 13 6h17.7a6 6 0 0 1 4.4 1.7 6 6 0 0 1 1.8 4.4v16a6 6 0 0 1-1.8 4.3 6 6 0 0 1-4.4 1.8H1058Z" style="fill:#74aa00;fill-rule:nonzero"/>
    <path d="M489.8 297c.4 0 .7.2 1 .5.3.3.5.6.5 1v6c0 .4-.2.8-.5 1-.3.4-.6.5-1 .5H473v7.7h15.6c.5 0 .8.2 1.1.5.3.3.5.7.5 1v6c0 .4-.2.8-.5 1.1-.3.3-.6.4-1 .4H473V335c0 .4-.2.8-.5 1-.3.4-.7.5-1 .5H464c-.4 0-.8-.1-1.1-.4-.3-.3-.5-.7-.5-1.1v-36.3c0-.5.2-.8.5-1.1.3-.3.7-.5 1-.5h25.8Zm52.7-.5c3.5 0 6.6.7 9.2 2a15.2 15.2 0 0 1 8.3 13.2 79.7 79.7 0 0 1 0 10 14.9 14.9 0 0 1-8.3 13.2c-2.6 1.4-5.7 2-9.2 2-3.6 0-6.7-.6-9.2-2a15 15 0 0 1-6-5.4 16.2 16.2 0 0 1-2.4-7.8 139 139 0 0 1 0-10 17 17 0 0 1 2.4-7.7 15 15 0 0 1 6-5.5c2.5-1.3 5.6-2 9.2-2Zm7.1 15.5c-.2-2-.8-3.6-2-4.7a7 7 0 0 0-5.1-1.8c-2.2 0-4 .6-5.1 1.8a7.5 7.5 0 0 0-2 4.7 53.4 53.4 0 0 0 0 9.5c.1 2 .8 3.5 2 4.7a6.8 6.8 0 0 0 5 1.8c2.3 0 4-.6 5.2-1.8a7.5 7.5 0 0 0 2-4.7 58.8 58.8 0 0 0 0-9.5Zm78.3-15c.4 0 .7.2 1 .5.3.3.5.6.5 1V321a16 16 0 0 1-2.2 8.7 13.7 13.7 0 0 1-6 5.4 20.5 20.5 0 0 1-9 1.9c-3.4 0-6.4-.6-9-1.9-2.5-1.2-4.5-3-5.9-5.4a16.8 16.8 0 0 1-2.1-8.7v-22.4c0-.5.1-.8.4-1.1.3-.3.7-.5 1.1-.5h7.4c.4 0 .7.2 1 .5.3.3.5.6.5 1v22.3c0 2.3.6 4 1.7 5.3 1.2 1.3 2.8 1.9 5 1.9s3.8-.6 5-1.9c1.1-1.3 1.7-3 1.7-5.3v-22.2c0-.5.1-.8.4-1.1.3-.3.7-.5 1.1-.5h7.4Zm63.5 39.4c-.5 0-1-.1-1.4-.4l-.9-.9-12.9-19.2v19c0 .4-.1.8-.4 1-.3.4-.7.5-1 .5h-7.4c-.5 0-.8-.1-1.1-.4-.3-.3-.5-.7-.5-1.1v-36.3c0-.5.2-.8.5-1.1.3-.3.6-.5 1-.5h5.9c.6 0 1 .2 1.5.5.4.2.7.5.8.8l12.9 19.3v-19c0-.5.1-.8.4-1.1.3-.3.7-.5 1.1-.5h7.4c.4 0 .7.2 1 .5.3.3.5.6.5 1V335c0 .4-.2.8-.5 1-.3.4-.6.5-1 .5h-5.9Zm77.4-23.7a152.4 152.4 0 0 1 0 8 15.3 15.3 0 0 1-8.5 13.7c-2.6 1.4-5.6 2-9 2h-15.2c-.4 0-.7-.1-1-.4-.3-.3-.5-.7-.5-1.1v-36.3c0-.5.2-.8.5-1.1.3-.3.6-.5 1-.5h15c3.4 0 6.4.7 9 2a15.5 15.5 0 0 1 8.7 13.7ZM745 306v21.4h6c4.8 0 7.2-2.1 7.4-6.5a159 159 0 0 0 0-8.4c0-2.1-.8-3.7-2-4.8a8.4 8.4 0 0 0-5.6-1.7H745Zm91 28.3.2.9c0 .3-.2.6-.4.9-.2.2-.5.3-.9.3h-7c-.7 0-1.2-.1-1.6-.4a2 2 0 0 1-.7-1l-1.5-4.7h-15l-1.6 4.7a2 2 0 0 1-.7 1c-.3.3-.8.4-1.5.4h-7c-.4 0-.7-.1-1-.3-.2-.3-.3-.6-.3-1l.2-.8 12.3-35.4c.2-.5.5-1 .9-1.3.4-.4 1-.6 1.6-.6h9.1c.7 0 1.3.2 1.7.6.4.3.7.8.9 1.3l12.2 35.4Zm-15-12.7-4.5-13.5-4.6 13.5h9.1Zm77.6-24.6c.4 0 .8.2 1 .5.4.3.5.6.5 1v6c0 .4-.1.8-.4 1-.3.4-.7.5-1.1.5h-9.9v29c0 .4-.2.8-.5 1-.3.4-.6.5-1 .5h-7.4c-.4 0-.8-.1-1-.4-.4-.3-.5-.7-.5-1.1v-29h-10a1.5 1.5 0 0 1-1.5-1.5v-6c0-.4.2-.7.5-1 .3-.3.7-.5 1-.5h30.3Zm37.1 39.4c-.4 0-.8-.1-1.1-.4-.3-.3-.5-.7-.5-1.1v-36.3c0-.5.2-.8.5-1.1.3-.3.7-.5 1-.5h7.4c.4 0 .8.2 1.1.5.3.3.5.6.5 1V335c0 .4-.2.8-.5 1-.3.4-.7.5-1 .5h-7.4Zm62-39.9c3.5 0 6.6.7 9.2 2a15.2 15.2 0 0 1 8.3 13.2 79.7 79.7 0 0 1 0 10 14.9 14.9 0 0 1-8.3 13.2c-2.6 1.4-5.7 2-9.2 2-3.6 0-6.7-.6-9.3-2a15 15 0 0 1-6-5.4 16.2 16.2 0 0 1-2.3-7.8 139 139 0 0 1 0-10 15 15 0 0 1 8.3-13.2c2.6-1.3 5.7-2 9.3-2Zm7.1 15.5c-.2-2-.9-3.6-2-4.7a7 7 0 0 0-5.1-1.8c-2.3 0-4 .6-5.1 1.8a7.5 7.5 0 0 0-2 4.7 53.4 53.4 0 0 0 0 9.5c.1 2 .8 3.5 2 4.7 1.1 1.2 2.8 1.8 5 1.8 2.3 0 4-.6 5.1-1.8a7.5 7.5 0 0 0 2.1-4.7 58.8 58.8 0 0 0 0-9.5Zm71.5 24.4c-.5 0-1-.1-1.4-.4l-.9-.9-12.8-19.2v19c0 .4-.2.8-.5 1-.3.4-.6.5-1 .5h-7.4c-.4 0-.8-.1-1-.4-.4-.3-.5-.7-.5-1.1v-36.3c0-.5.1-.8.4-1.1.3-.3.7-.5 1-.5h6c.5 0 1 .2 1.4.5.4.2.7.5.8.8l13 19.3v-19c0-.5 0-.8.4-1.1.3-.3.6-.5 1-.5h7.4c.4 0 .8.2 1 .5.4.3.5.6.5 1V335c0 .4-.1.8-.4 1-.3.4-.7.5-1.1.5h-5.9Z" style="fill:#231f20;fill-rule:nonzero"/>
</svg>
